<svg width="12" height="20" fill="none" xmlns="http://www.w3.org/2000/svg"><g clip-path="url(#a)"><path d="M9.125 19.1.7 10.7a.883.883 0 0 1-.213-.325A1.083 1.083 0 0 1 .425 10c0-.133.02-.258.062-.375A.867.867 0 0 1 .7 9.3L9.125.875c.233-.233.525-.35.875-.35s.65.125.9.375.375.542.375.875a1.2 1.2 0 0 1-.375.875L3.55 10l7.35 7.35c.233.233.35.521.35.863 0 .342-.125.638-.375.887a1.2 1.2 0 0 1-.875.375 1.2 1.2 0 0 1-.875-.375Z" fill="#000"/></g><defs><clipPath id="a"><path fill="#fff" d="M0 0h12v20H0z"/></clipPath></defs></svg>